<svg width="250" height="250" viewBox="0 0 250 250" fill="none" xmlns="http://www.w3.org/2000/svg">
<g clip-path="url(#clip0_1_7704)">
<path d="M250 125C250 194.035 194.035 250 125 250C55.9644 250 0 194.035 0 125C0 55.9644 55.9644 0 125 0C194.035 0 250 55.9644 250 125Z" fill="white"/>
<path fill-rule="evenodd" clip-rule="evenodd" d="M125 229.167C182.529 229.167 229.167 182.529 229.167 125C229.167 67.4703 182.529 20.8333 125 20.8333C67.4703 20.8333 20.8333 67.4703 20.8333 125C20.8333 182.529 67.4703 229.167 125 229.167ZM125 250C194.035 250 250 194.035 250 125C250 55.9644 194.035 0 125 0C55.9644 0 0 55.9644 0 125C0 194.035 55.9644 250 125 250Z" fill="#DF42AB"/>
<path fill-rule="evenodd" clip-rule="evenodd" d="M125 208.333C171.024 208.333 208.333 171.024 208.333 125C208.333 78.9763 171.024 41.6667 125 41.6667C78.9763 41.6667 41.6667 78.9763 41.6667 125C41.6667 171.024 78.9763 208.333 125 208.333ZM122.709 119.555L91.7051 88.5513C91.3952 88.2378 90.9994 88.0233 90.5675 87.9346C90.1356 87.8461 89.6871 87.8874 89.2788 88.0536C88.8704 88.2197 88.5204 88.5032 88.2731 88.8681C88.0259 89.2331 87.8923 89.6633 87.8893 90.1041V124.449C87.8447 124.626 87.8219 124.808 87.8219 124.992V159.879C87.8197 160.173 87.8759 160.464 87.9872 160.735C88.0985 161.006 88.2626 161.253 88.4701 161.46C88.6776 161.669 88.9244 161.832 89.196 161.944C89.4672 162.055 89.7577 162.111 90.0509 162.109H90.1183H125.072C125.364 162.109 125.653 162.052 125.923 161.94C126.193 161.827 126.438 161.663 126.643 161.455C126.849 161.248 127.011 161.002 127.122 160.731C127.232 160.461 127.288 160.172 127.285 159.879V130.424L158.293 161.432H158.309C158.525 161.651 158.782 161.824 159.066 161.941C159.35 162.057 159.655 162.115 159.961 162.109C160.254 162.109 160.543 162.052 160.813 161.94C161.082 161.827 161.327 161.663 161.532 161.455C161.739 161.248 161.901 161.002 162.011 160.731C162.122 160.461 162.177 160.172 162.175 159.879V124.992C162.175 124.9 162.17 124.808 162.158 124.718V90.1043C162.158 89.8137 162.101 89.5259 161.99 89.2573C161.878 88.9887 161.716 88.7447 161.509 88.5392C161.304 88.3336 161.06 88.1705 160.792 88.0593C160.546 87.9573 160.283 87.9007 160.017 87.892C159.958 87.8891 159.898 87.8886 159.839 87.8905L159.822 87.891H124.939C124.647 87.8888 124.357 87.9444 124.086 88.0546C123.817 88.1649 123.571 88.3276 123.364 88.5334C123.156 88.7391 122.992 88.9839 122.879 89.2536C122.767 89.5231 122.709 89.8123 122.709 90.1044V119.555Z" fill="#DF42AB"/>
</g>
<defs>
<clipPath id="clip0_1_7704">
<rect width="250" height="250" fill="white"/>
</clipPath>
</defs>
</svg>
