<svg width="250" height="250" viewBox="0 0 250 250" fill="none" xmlns="http://www.w3.org/2000/svg">
<g clip-path="url(#clip0_1_89)">
<path d="M203.849 52.4666L196.984 59.3309C213.364 77.243 222.447 100.636 222.447 124.908C222.447 149.18 213.364 172.574 196.984 190.486L203.849 197.35C222.065 177.592 232.177 151.702 232.177 124.828C232.177 97.9545 222.065 72.0648 203.849 52.3065V52.4666Z" fill="#5A5564"/>
<path d="M59.4913 53.0615C77.4033 36.682 100.797 27.5987 125.069 27.5987C149.341 27.5987 172.734 36.682 190.646 53.0615L197.51 46.1971C177.752 27.9813 151.863 17.8682 124.989 17.8682C98.1148 17.8682 72.2251 27.9813 52.4667 46.1971L59.4913 53.0615Z" fill="#5A5564"/>
<path d="M53.0617 190.554C36.7016 172.647 27.6302 149.268 27.6302 125.011C27.6302 100.755 36.7016 77.3764 53.0617 59.4683L46.1973 52.6039C27.9816 72.3622 17.8683 98.252 17.8683 125.126C17.8683 152 27.9816 177.89 46.1973 197.648L53.0617 190.554Z" fill="#5A5564"/>
<path d="M190.554 196.893C172.643 213.272 149.249 222.355 124.977 222.355C100.705 222.355 77.3116 213.272 59.3994 196.893L52.5351 203.757C72.2934 221.973 98.1831 232.086 125.057 232.086C151.931 232.086 177.821 221.973 197.579 203.757L190.554 196.893Z" fill="#5A5564"/>
<path d="M168.336 102.096C166.964 87.7723 154.608 82.9672 138.98 81.5028V61.7793H126.899V81.1367C123.719 81.1367 120.47 81.1367 117.243 81.1367V61.7793H105.253V81.6401H80.7476V94.5681C80.7476 94.5681 89.6713 94.4078 89.534 94.5681C91.143 94.391 92.7579 94.8455 94.0384 95.8358C95.3189 96.826 96.1649 98.2746 96.3983 99.8765V154.242C96.364 154.807 96.2167 155.359 95.9651 155.867C95.7136 156.373 95.3629 156.825 94.934 157.194C94.513 157.57 94.0203 157.857 93.4855 158.038C92.9509 158.219 92.385 158.29 91.8221 158.246C91.9823 158.383 83.0357 158.246 83.0357 158.246L80.7476 172.684H105.025V192.866H117.106V172.982H126.761V192.774H138.866V172.822C159.276 171.586 173.508 166.552 175.293 147.447C176.734 132.07 169.504 125.206 157.949 122.438C164.973 118.982 169.321 112.575 168.336 102.096ZM151.405 145.067C151.405 160.077 125.686 158.36 117.495 158.36V131.727C125.686 131.75 151.405 129.393 151.405 145.067ZM145.799 107.542C145.799 121.271 124.336 119.6 117.518 119.6V95.3917C124.336 95.3917 145.799 93.2409 145.799 107.542Z" fill="#F09242"/>
<path d="M124.977 250C100.256 249.996 76.0921 242.661 55.5395 228.924C34.9869 215.188 18.9689 195.665 9.51074 172.825C0.0526166 149.985 -2.42087 124.853 2.40301 100.608C7.22689 76.3626 19.1316 54.0919 36.6117 36.6117C54.0919 19.1316 76.3626 7.22689 100.608 2.40301C124.853 -2.42087 149.985 0.0526166 172.825 9.51074C195.665 18.9689 215.188 34.9869 228.924 55.5395C242.661 76.0921 249.996 100.256 250 124.977C250.003 141.396 246.771 157.655 240.49 172.825C234.207 187.995 224.998 201.778 213.389 213.389C201.778 224.998 187.995 234.207 172.825 240.49C157.655 246.771 141.396 250.003 124.977 250ZM124.977 9.74745C102.202 9.76554 79.9429 16.5352 61.0141 29.2007C42.0852 41.8663 27.336 59.8592 18.6307 80.9052C9.92541 101.951 7.65476 125.105 12.1058 147.442C16.5568 169.778 27.5297 190.294 43.6375 206.395C59.7453 222.496 80.265 233.461 102.603 237.903C124.941 242.345 148.095 240.066 169.138 231.352C190.179 222.639 208.167 207.882 220.825 188.948C233.482 170.014 240.244 147.752 240.253 124.977C240.258 109.84 237.28 94.849 231.49 80.8629C225.698 66.877 217.206 54.1697 206.5 43.4678C195.794 32.7659 183.083 24.2794 169.095 18.4934C155.106 12.7074 140.115 9.73542 124.977 9.74745Z" fill="#282138"/>
</g>
<defs>
<clipPath id="clip0_1_89">
<rect width="250" height="250" fill="white"/>
</clipPath>
</defs>
</svg>
