<svg width="250" height="250" viewBox="0 0 250 250" fill="none" xmlns="http://www.w3.org/2000/svg">
<g clip-path="url(#clip0_1_7722)">
<path d="M125 250C194.036 250 250 194.036 250 125C250 55.9644 194.036 0 125 0C55.9644 0 0 55.9644 0 125C0 194.036 55.9644 250 125 250Z" fill="#627EEA"/>
<path d="M246.094 125C246.094 191.878 191.878 246.094 125 246.094C58.1218 246.094 3.90625 191.878 3.90625 125C3.90625 58.1218 58.1218 3.90625 125 3.90625C191.878 3.90625 246.094 58.1218 246.094 125Z" stroke="#8A919E" stroke-opacity="0.66"/>
<path d="M124.986 31.25V97.6734L179.652 122.76L124.986 31.25Z" fill="white" fill-opacity="0.602"/>
<path d="M124.985 31.25L70.3125 122.76L124.985 97.6734V31.25Z" fill="white"/>
<path d="M124.986 165.804V210.938L179.688 133.214L124.986 165.804Z" fill="white" fill-opacity="0.602"/>
<path d="M124.985 210.938V165.797L70.3125 133.214L124.985 210.938Z" fill="white"/>
<path d="M124.986 155.358L179.652 122.76L124.986 97.6882V155.358Z" fill="white" fill-opacity="0.2"/>
<path d="M70.3125 122.76L124.985 155.358V97.6882L70.3125 122.76Z" fill="white" fill-opacity="0.602"/>
</g>
<defs>
<clipPath id="clip0_1_7722">
<rect width="250" height="250" fill="white"/>
</clipPath>
</defs>
</svg>
