<svg width="250" height="250" viewBox="0 0 250 250" fill="none" xmlns="http://www.w3.org/2000/svg">
<g clip-path="url(#clip0_1_7735)">
<path d="M125 250C194.036 250 250 194.036 250 125C250 55.9644 194.036 0 125 0C55.9644 0 0 55.9644 0 125C0 194.036 55.9644 250 125 250Z" fill="white"/>
<path d="M125 238.281C187.563 238.281 238.281 187.563 238.281 125C238.281 62.4365 187.563 11.7188 125 11.7188C62.4365 11.7188 11.7188 62.4365 11.7188 125C11.7188 187.563 62.4365 238.281 125 238.281ZM250 125C250 194.036 194.036 250 125 250C55.9644 250 0 194.036 0 125C0 55.9644 55.9644 0 125 0C194.036 0 250 55.9644 250 125Z" fill="#0052FF"/>
<path d="M124.984 31.25V97.6734L179.65 122.76L124.984 31.25Z" fill="#0052FF" fill-opacity="0.6"/>
<path d="M124.985 31.25L70.3125 122.76L124.985 97.6734V31.25Z" fill="#0052FF"/>
<path d="M124.984 165.803V210.937L179.687 133.213L124.984 165.803Z" fill="#0052FF" fill-opacity="0.6"/>
<path d="M124.985 210.937V165.795L70.3125 133.213L124.985 210.937Z" fill="#0052FF"/>
<path d="M124.984 155.356L179.65 122.759L124.984 97.6868V155.356Z" fill="#0052FF" fill-opacity="0.2"/>
<path d="M70.3125 122.759L124.985 155.356V97.6868L70.3125 122.759Z" fill="#0052FF" fill-opacity="0.6"/>
</g>
<defs>
<clipPath id="clip0_1_7735">
<rect width="250" height="250" fill="white"/>
</clipPath>
</defs>
</svg>
