<svg width="288" height="250" viewBox="0 0 288 250" fill="none" xmlns="http://www.w3.org/2000/svg">
<g clip-path="url(#clip0_1_73)">
<path fill-rule="evenodd" clip-rule="evenodd" d="M52.6213 1.2277L0.220133 111.296C0.0207311 111.706 -0.042458 112.168 0.0398062 112.616C0.12207 113.064 0.345472 113.474 0.677341 113.786L142.2 249.399C142.602 249.784 143.138 250 143.695 250C144.252 250 144.787 249.784 145.189 249.399L286.712 113.794C287.044 113.482 287.267 113.073 287.35 112.625C287.432 112.177 287.369 111.714 287.169 111.305L234.768 1.23617C234.599 0.866511 234.327 0.553364 233.985 0.334153C233.642 0.114943 233.244 -0.00105937 232.838 1.12653e-05H54.5687C54.1602 -0.00507021 53.7591 0.108137 53.4135 0.325978C53.068 0.543818 52.7929 0.856985 52.6213 1.2277Z" fill="#50AF95"/>
<path fill-rule="evenodd" clip-rule="evenodd" d="M161.877 122.6C160.861 122.676 155.612 122.989 143.902 122.989C134.589 122.989 127.976 122.71 125.656 122.6C89.6637 121.016 62.7984 114.751 62.7984 107.249C62.7984 99.7477 89.6637 93.4907 125.656 91.882V116.36C128.01 116.529 134.75 116.927 144.063 116.927C155.239 116.927 160.836 116.461 161.843 116.368V91.8989C197.76 93.4992 224.566 99.7646 224.566 107.249C224.566 114.734 197.768 120.999 161.843 122.591L161.877 122.6ZM161.877 89.3674V67.4637H212.001V34.062H75.5326V67.4637H125.648V89.3589C84.9138 91.2301 54.2808 99.2989 54.2808 108.968C54.2808 118.637 84.9138 126.698 125.648 128.577V198.767H161.869V128.552C202.51 126.681 233.092 118.62 233.092 108.96C233.092 99.299 202.535 91.2385 161.869 89.3589L161.877 89.3674Z" fill="white"/>
</g>
<defs>
<clipPath id="clip0_1_73">
<rect width="287.389" height="250" fill="white"/>
</clipPath>
</defs>
</svg>
