<svg width="250" height="250" viewBox="0 0 250 250" fill="none" xmlns="http://www.w3.org/2000/svg">
<g clip-path="url(#clip0_1_11)">
<path fill-rule="evenodd" clip-rule="evenodd" d="M125 0C194.025 0 250 55.975 250 125C250 194.025 194.025 250 125 250C55.975 250 0 194.025 0 125C0 55.975 55.975 0 125 0Z" fill="#1E1E1E"/>
<path d="M126.875 177.25C86.9 177.25 54.5 165.7 54.5 150.225C54.5 142.15 63.325 134.875 77.45 129.75C88.475 136.825 106.975 140.45 127.95 140.45C148.425 140.45 166.525 136.025 177.65 129.25C190.975 134.325 199.25 141.4 199.25 149.2C199.25 164.7 166.85 177.25 126.875 177.25Z" fill="white"/>
<path d="M127.3 136.975C97 136.975 72.425 127.475 72.425 115.75C72.425 109.25 80 103.425 91.875 99.55C100.35 103.975 113.05 106.8 127.3 106.8C141.55 106.8 154.25 103.975 162.725 99.55C174.625 103.45 182.175 109.25 182.175 115.75C182.2 127.475 157.625 136.975 127.3 136.975Z" fill="white"/>
<path d="M127.1 103.275C103.675 103.275 84.675 95.4249 84.675 85.7749C84.675 76.1249 103.675 68.2749 127.1 68.2749C150.525 68.2749 169.525 76.1249 169.525 85.7749C169.525 95.4249 150.525 103.275 127.1 103.275Z" fill="white"/>
</g>
<defs>
<clipPath id="clip0_1_11">
<rect width="250" height="250" fill="white"/>
</clipPath>
</defs>
</svg>
