<svg width="250" height="250" viewBox="0 0 250 250" fill="none" xmlns="http://www.w3.org/2000/svg">
<g clip-path="url(#clip0_1_42)">
<mask id="mask0_1_42" style="mask-type:luminance" maskUnits="userSpaceOnUse" x="0" y="0" width="250" height="250">
<path d="M250 0H0V250H250V0Z" fill="white"/>
</mask>
<g mask="url(#mask0_1_42)">
<path d="M52.0833 23.9583L245.833 156.25L197.917 227.083L4.16663 93.75L52.0833 23.9583Z" fill="url(#paint0_linear_1_42)"/>
<path d="M245.833 156.25C229.167 180.208 172.917 170.833 119.792 133.333C65.625 96.875 36.4583 47.9167 52.0833 23.9583C68.75 6.8575e-06 125 9.37501 178.125 46.875C232.292 82.2917 261.458 132.292 245.833 156.25Z" fill="url(#paint1_linear_1_42)"/>
<path d="M197.917 226.042C181.25 250 125 240.625 71.875 203.125C18.75 165.625 -11.4584 117.708 5.20831 92.7083C21.875 68.75 78.125 78.125 131.25 115.625C184.375 153.125 213.542 202.083 197.917 226.042Z" fill="url(#paint2_linear_1_42)"/>
<path d="M245.833 156.25L197.917 227.083C181.25 251.042 125 240.625 71.875 204.167C61.4583 196.875 52.0833 189.583 42.7083 181.25C50 180.208 59.375 176.042 68.75 165.625C85.4166 147.917 93.75 143.75 101.042 144.792C108.333 144.792 116.667 152.083 130.208 169.792C143.75 187.5 162.5 192.708 173.958 183.333C175 182.292 176.042 182.292 177.083 181.25C186.458 173.958 189.583 170.833 207.292 137.5C211.458 129.167 226.042 115.625 245.833 121.875C251.042 135.417 251.042 146.875 245.833 156.25Z" fill="#0E0F23"/>
<path fill-rule="evenodd" clip-rule="evenodd" d="M238.542 152.083C223.958 172.917 172.917 162.5 123.958 128.125C73.9583 93.75 44.7916 50 59.375 29.1667C73.9583 8.33333 125 18.75 173.958 53.125C222.917 87.5 252.083 131.25 238.542 152.083ZM192.708 120.833C185.417 131.25 160.417 126.042 135.417 109.375C111.458 92.7083 96.875 70.8333 104.167 60.4167C111.458 50 136.458 55.2083 161.458 71.875C185.417 88.5417 200 110.417 192.708 120.833Z" fill="white"/>
<path d="M47.9167 47.9167C47.9167 46.875 46.875 45.8333 45.8333 46.875C44.7917 47.9167 43.75 47.9167 43.75 48.9583C44.7917 52.0833 45.8333 54.1667 45.8333 56.25C45.8333 57.2917 46.875 58.3333 47.9167 57.2917C48.9583 57.2917 50 56.25 48.9583 55.2084C48.9583 53.125 48.9583 51.0417 47.9167 47.9167Z" fill="white"/>
<path d="M53.125 64.5834C53.125 63.5417 52.0833 62.5 51.0417 63.5417C50 64.5834 50 64.5834 50 65.625C61.4583 91.6667 85.4167 119.792 116.667 140.625C117.708 141.667 118.75 140.625 119.792 140.625C120.833 139.583 119.792 138.542 119.792 137.5C87.5 116.667 64.5833 89.5834 53.125 64.5834Z" fill="white"/>
<path d="M179.167 166.667C178.125 166.667 177.083 166.667 177.083 167.708C177.083 168.75 177.083 169.792 178.125 169.792C181.25 170.833 185.417 171.875 188.542 172.917C189.583 172.917 190.625 172.917 190.625 171.875C190.625 170.833 190.625 169.792 189.583 169.792C186.458 168.75 182.292 167.708 179.167 166.667Z" fill="white"/>
<path d="M197.917 170.833C196.875 170.833 195.833 171.875 195.833 172.917C195.833 173.958 196.875 175 197.917 175C206.25 176.042 215.625 177.083 222.917 176.042C223.958 176.042 225 175 225 173.958C225 172.917 223.958 171.875 222.917 171.875C214.583 172.917 206.25 171.875 197.917 170.833Z" fill="white"/>
</g>
</g>
<defs>
<linearGradient id="paint0_linear_1_42" x1="90.0437" y1="5.14894" x2="128.467" y2="137.089" gradientUnits="userSpaceOnUse">
<stop stop-color="#03B8FF"/>
<stop offset="1" stop-color="#FA52A0"/>
</linearGradient>
<linearGradient id="paint1_linear_1_42" x1="121.685" y1="-4.06666" x2="160.109" y2="127.874" gradientUnits="userSpaceOnUse">
<stop stop-color="#03B8FF"/>
<stop offset="1" stop-color="#FA52A0"/>
</linearGradient>
<linearGradient id="paint2_linear_1_42" x1="58.5" y1="14.3344" x2="96.9239" y2="146.275" gradientUnits="userSpaceOnUse">
<stop stop-color="#03B8FF"/>
<stop offset="1" stop-color="#FA52A0"/>
</linearGradient>
<clipPath id="clip0_1_42">
<rect width="250" height="250" fill="white"/>
</clipPath>
</defs>
</svg>
