<svg width="250" height="250" viewBox="0 0 250 250" fill="none" xmlns="http://www.w3.org/2000/svg">
<g clip-path="url(#clip0_1_32)">
<path d="M125 250C194.036 250 250 194.036 250 125C250 55.9644 194.036 0 125 0C55.9644 0 0 55.9644 0 125C0 194.036 55.9644 250 125 250Z" fill="black"/>
<mask id="mask0_1_32" style="mask-type:luminance" maskUnits="userSpaceOnUse" x="52" y="62" width="146" height="126">
<path d="M197.917 62.5H52.0833V187.5H197.917V62.5Z" fill="white"/>
</mask>
<g mask="url(#mask0_1_32)">
<path d="M75.771 157.904C76.6511 156.942 77.8612 156.38 79.1446 156.38H195.532C197.659 156.38 198.723 159.188 197.22 160.831L174.228 185.976C173.348 186.939 172.137 187.5 170.854 187.5H54.4662C52.3395 187.5 51.276 184.693 52.7795 183.049L75.771 157.904Z" fill="url(#paint0_linear_1_32)"/>
<path d="M75.7715 64.0239C76.6882 63.0615 77.8983 62.5 79.1451 62.5H195.533C197.66 62.5 198.723 65.3072 197.22 66.9514L174.228 92.0957C173.348 93.0582 172.139 93.6197 170.855 93.6197H54.4668C52.3399 93.6197 51.2766 90.8125 52.78 89.1682L75.7715 64.0239Z" fill="url(#paint1_linear_1_32)"/>
<path d="M174.228 110.663C173.348 109.701 172.137 109.14 170.854 109.14H54.4662C52.3395 109.14 51.276 111.947 52.7795 113.591L75.771 138.735C76.6511 139.698 77.8612 140.259 79.1446 140.259H195.532C197.659 140.259 198.723 137.452 197.22 135.807L174.228 110.663Z" fill="url(#paint2_linear_1_32)"/>
</g>
</g>
<defs>
<linearGradient id="paint0_linear_1_32" x1="184.415" y1="47.4794" x2="91.956" y2="209.411" gradientUnits="userSpaceOnUse">
<stop stop-color="#00FFA3"/>
<stop offset="1" stop-color="#DC1FFF"/>
</linearGradient>
<linearGradient id="paint1_linear_1_32" x1="149.194" y1="27.3695" x2="56.7357" y2="189.302" gradientUnits="userSpaceOnUse">
<stop stop-color="#00FFA3"/>
<stop offset="1" stop-color="#DC1FFF"/>
</linearGradient>
<linearGradient id="paint2_linear_1_32" x1="166.692" y1="37.3604" x2="74.2335" y2="199.293" gradientUnits="userSpaceOnUse">
<stop stop-color="#00FFA3"/>
<stop offset="1" stop-color="#DC1FFF"/>
</linearGradient>
<clipPath id="clip0_1_32">
<rect width="250" height="250" fill="white"/>
</clipPath>
</defs>
</svg>
