<svg width="250" height="250" viewBox="0 0 250 250" fill="none" xmlns="http://www.w3.org/2000/svg">
<g clip-path="url(#clip0_1_28)">
<path d="M125 0C194.042 0 250 55.9693 250 125C250 194.042 194.042 250 125 250C55.9693 250 0 194.036 0 125C0 55.9693 55.9693 0 125 0Z" fill="#F5AC37"/>
<path d="M129.607 133.826H177.105C178.117 133.826 178.596 133.826 178.669 132.498C179.057 127.666 179.057 122.806 178.669 117.969C178.669 117.029 178.202 116.641 177.184 116.641H82.6546C81.4846 116.641 81.1695 117.029 81.1695 118.126V132.031C81.1695 133.826 81.1695 133.826 83.0427 133.826H129.607ZM173.364 100.39C173.499 100.036 173.499 99.6479 173.364 99.2992C172.571 97.5723 171.632 95.9241 170.54 94.3772C168.898 91.7335 166.963 89.2978 164.758 87.1097C163.717 85.7878 162.513 84.6009 161.163 83.594C154.402 77.8396 146.364 73.767 137.724 71.7195C133.364 70.7408 128.909 70.2739 124.443 70.3133H82.4914C81.3214 70.3133 81.1639 70.7801 81.1639 71.7983V99.5298C81.1639 100.7 81.1639 101.015 82.6489 101.015H172.802C172.802 101.015 173.584 100.857 173.741 100.39H173.359H173.364ZM173.364 150.077C172.037 149.93 170.698 149.93 169.37 150.077H82.7333C81.5633 150.077 81.1695 150.077 81.1695 151.64V178.753C81.1695 180.002 81.1695 180.317 82.7333 180.317H122.733C124.646 180.463 126.558 180.328 128.431 179.929C134.236 179.512 139.946 178.252 145.391 176.177C147.371 175.491 149.283 174.596 151.089 173.522H151.635C161.012 168.645 168.628 160.984 173.432 151.578C173.432 151.578 173.977 150.397 173.364 150.088V150.077ZM65.47 194.374V193.907V175.704V169.534V151.173C65.47 150.155 65.47 150.003 64.2213 150.003H47.2673C46.3279 150.003 45.9398 150.003 45.9398 148.755V133.91H64.0638C65.0763 133.91 65.47 133.91 65.47 132.583V117.896C65.47 116.956 65.47 116.726 64.2213 116.726H47.2673C46.3279 116.726 45.9398 116.726 45.9398 115.477V101.729C45.9398 100.869 45.9398 100.638 47.1886 100.638H63.985C65.155 100.638 65.47 100.638 65.47 99.1529V57.0437C65.47 55.795 65.47 55.48 67.0338 55.48H125.624C129.877 55.6487 134.101 56.1156 138.281 56.8862C146.893 58.4781 155.167 61.555 162.733 65.9482C167.75 68.9014 172.369 72.4677 176.48 76.5739C179.574 79.7859 182.364 83.2621 184.839 86.9634C187.297 90.7153 189.339 94.726 190.943 98.9167C191.139 100.008 192.186 100.745 193.277 100.559H207.261C209.055 100.559 209.055 100.559 209.134 102.28V115.094C209.134 116.343 208.667 116.658 207.413 116.658H196.629C195.538 116.658 195.223 116.658 195.302 118.064C195.729 122.823 195.729 127.599 195.302 132.358C195.302 133.685 195.302 133.843 196.793 133.843H209.128C209.674 134.546 209.128 135.249 209.128 135.958C209.207 136.863 209.207 137.78 209.128 138.686V148.142C209.128 149.469 208.74 149.863 207.565 149.863H192.799C191.769 149.666 190.768 150.324 190.532 151.348C187.016 160.489 181.391 168.684 174.124 175.254C171.469 177.645 168.679 179.895 165.765 181.971C162.637 183.771 159.594 185.644 156.388 187.129C150.487 189.784 144.3 191.741 137.949 192.984C131.919 194.064 125.804 194.554 119.667 194.469H65.4475V194.391L65.47 194.374Z" fill="#FEFEFD"/>
</g>
<defs>
<clipPath id="clip0_1_28">
<rect width="250" height="250" fill="white"/>
</clipPath>
</defs>
</svg>
