<svg width="250" height="250" viewBox="0 0 250 250" fill="none" xmlns="http://www.w3.org/2000/svg">
<g clip-path="url(#clip0_1_7744)">
<path d="M250 125C250 55.9644 194.036 0 125 0C55.9644 0 0 55.9644 0 125C0 194.036 55.9644 250 125 250C194.036 250 250 194.036 250 125Z" fill="#0052FF"/>
<path fill-rule="evenodd" clip-rule="evenodd" d="M117.871 38.0859V84.0989C102.371 86.4044 93.4503 96.5074 93.4503 108.623C93.4503 124.113 103.607 130.548 118.016 133.05L126.756 134.6C134.905 136.029 138.803 137.102 138.803 143.06C138.803 148.778 134.433 153.307 125.103 153.307C115.89 153.307 110.221 149.255 110.221 141.033H91.7969C91.7969 154.855 102.072 164.745 118.016 166.891V182.857H132.425V166.771C147.542 164.388 157.227 154.975 157.227 141.51C157.227 125.186 145.889 119.467 131.952 117.322L123.566 116.011C116.126 114.819 111.993 113.151 111.993 107.074C111.993 102.309 115.536 97.6611 124.512 97.6611C133.842 97.6611 137.739 102.189 137.739 108.266H156.164C155.928 96.732 147.694 86.7406 132.52 84.2125V38.1994C177.037 42.243 211.914 79.6685 211.914 125.24C211.914 173.511 172.782 212.643 124.512 212.643C76.2407 212.643 37.1094 173.511 37.1094 125.24C37.1094 79.2029 72.7023 41.4792 117.871 38.0859Z" fill="white"/>
</g>
<defs>
<clipPath id="clip0_1_7744">
<rect width="250" height="250" fill="white"/>
</clipPath>
</defs>
</svg>
