<svg width="250" height="251" viewBox="0 0 250 251" fill="none" xmlns="http://www.w3.org/2000/svg">
<g clip-path="url(#clip0_1_7718)">
<path d="M125 250.5C194.271 250.5 250 194.771 250 125.5C250 56.2288 194.271 0.5 125 0.5C55.7288 0.5 0 56.2288 0 125.5C0 194.771 55.7288 250.5 125 250.5Z" fill="#2775CA"/>
<path d="M159.375 145.291C159.375 127.063 148.437 120.813 126.562 118.209C110.937 116.125 107.812 111.959 107.812 104.666C107.812 97.3738 113.021 92.6875 123.437 92.6875C132.812 92.6875 138.021 95.8125 140.625 103.625C141.146 105.188 142.709 106.229 144.271 106.229H152.604C154.687 106.229 156.25 104.666 156.25 102.584V102.063C154.166 90.6038 144.791 81.75 132.812 80.7088V68.2088C132.812 66.125 131.25 64.5625 128.646 64.0413H120.834C118.75 64.0413 117.187 65.6038 116.666 68.2088V80.1875C101.041 82.2713 91.1462 92.6875 91.1462 105.709C91.1462 122.896 101.562 129.666 123.437 132.271C138.021 134.875 142.709 138 142.709 146.334C142.709 154.668 135.416 160.396 125.521 160.396C111.979 160.396 107.291 154.666 105.729 146.854C105.209 144.771 103.646 143.729 102.084 143.729H93.2287C91.1462 143.729 89.5837 145.291 89.5837 147.375V147.896C91.6662 160.916 100 170.291 117.187 172.896V185.396C117.187 187.479 118.75 189.041 121.354 189.563H129.166C131.25 189.563 132.812 188 133.334 185.396V172.896C148.959 170.291 159.375 159.354 159.375 145.291Z" fill="white"/>
<path d="M98.4375 199.979C57.8125 185.396 36.9788 140.084 52.0838 99.9787C59.8963 78.1037 77.0838 61.4375 98.4375 53.625C100.521 52.5837 101.563 51.0212 101.563 48.4162V41.125C101.563 39.0412 100.521 37.4787 98.4375 36.9587C97.9163 36.9587 96.875 36.9587 96.3538 37.4787C46.875 53.1037 19.7913 105.709 35.4163 155.187C44.7913 184.354 67.1875 206.75 96.3538 216.125C98.4375 217.166 100.521 216.125 101.041 214.041C101.563 213.521 101.563 213 101.563 211.959V204.666C101.563 203.104 100 201.021 98.4375 199.979ZM153.646 37.4787C151.563 36.4375 149.479 37.4787 148.959 39.5625C148.438 40.0837 148.438 40.6037 148.438 41.6462V48.9375C148.438 51.0212 150 53.1037 151.563 54.1462C192.188 68.7287 213.021 114.041 197.916 154.146C190.104 176.021 172.916 192.687 151.563 200.5C149.479 201.541 148.438 203.104 148.438 205.709V213C148.438 215.084 149.479 216.646 151.563 217.166C152.084 217.166 153.125 217.166 153.646 216.646C203.125 201.021 230.209 148.416 214.584 98.9375C205.209 69.25 182.291 46.8537 153.646 37.4787Z" fill="white"/>
</g>
<defs>
<clipPath id="clip0_1_7718">
<rect width="250" height="250" fill="white" transform="translate(0 0.5)"/>
</clipPath>
</defs>
</svg>
